<svg xmlns="http://www.w3.org/2000/svg" viewBox="0 0 1600 900" width="1600" height="900" role="img" aria-label="DotMathBot">
  <title>DotMathBot</title>
  <defs>
    <linearGradient id="dm-bg" x1="0" y1="0" x2="1" y2="1">
      <stop offset="0" stop-color="#0a0b0d"/>
      <stop offset="0.5" stop-color="#14161a"/>
      <stop offset="1" stop-color="#0b0c0e"/>
    </linearGradient>
    <radialGradient id="dm-glow" cx="70%" cy="20%" r="62%">
      <stop offset="0" stop-color="#ffffff" stop-opacity="0.14"/>
      <stop offset="0.5" stop-color="#ffffff" stop-opacity="0.04"/>
      <stop offset="1" stop-color="#ffffff" stop-opacity="0"/>
    </radialGradient>
    <radialGradient id="dm-halo" cx="50%" cy="50%" r="50%">
      <stop offset="0" stop-color="#ffffff" stop-opacity="0.1"/>
      <stop offset="1" stop-color="#ffffff" stop-opacity="0"/>
    </radialGradient>
  </defs>
  <rect width="1600" height="900" fill="url(#dm-bg)"/>
  <rect width="1600" height="900" fill="url(#dm-glow)"/>
  <g opacity="0.045" stroke="#ffffff" stroke-width="1">
    <path d="M0 225 H1600 M0 450 H1600 M0 675 H1600 M400 0 V900 M800 0 V900 M1200 0 V900"/>
  </g>
  <circle cx="1180" cy="460" r="330" fill="url(#dm-halo)"/>
  <svg x="965" y="245" width="430" height="430" viewBox="0 0 48 48">
    <g opacity="0.1" fill="none" stroke="#ffffff" stroke-width="2.6" stroke-linecap="round" stroke-linejoin="round">
      <path d="M12 7 V17 M7 12 H17"/>
      <path d="M31 12 H41"/>
      <path d="M8.5 32.5 L15.5 39.5 M15.5 32.5 L8.5 39.5"/>
      <path d="M31 36 H41"/>
      <circle cx="36" cy="31.5" r="1.4" fill="#ffffff" stroke="none"/>
      <circle cx="36" cy="40.5" r="1.4" fill="#ffffff" stroke="none"/>
    </g>
  </svg>
  <svg x="140" y="118" width="86" height="86" viewBox="0 0 48 48">
    <g fill="none" stroke="#f3f3f1" stroke-width="2.6" stroke-linecap="round" stroke-linejoin="round">
      <path d="M12 7 V17 M7 12 H17"/>
      <path d="M31 12 H41"/>
      <path d="M8.5 32.5 L15.5 39.5 M15.5 32.5 L8.5 39.5"/>
      <path d="M31 36 H41"/>
      <circle cx="36" cy="31.5" r="1.4" fill="#f3f3f1" stroke="none"/>
      <circle cx="36" cy="40.5" r="1.4" fill="#f3f3f1" stroke="none"/>
    </g>
  </svg>
  <text x="138" y="408" font-family="Inter, Arial, sans-serif" font-size="132" font-weight="800" fill="#f3f3f1" letter-spacing="-3">.счёт</text>
  <text x="146" y="470" font-family="Inter, Arial, sans-serif" font-size="34" font-weight="700" fill="#f3f3f1">DotMathBot</text>
  <text x="146" y="516" font-family="Inter, Arial, sans-serif" font-size="26" fill="#a6a7ab">Тренажёр устного счёта в Telegram</text>
</svg>
